<?xml version="1.0" encoding="UTF-8" standalone="no"?>
<svg
   viewBox="0 0 512 512"
   version="1.1"
   id="svg1"
   sodipodi:docname="logo.svg"
   inkscape:version="1.4 (e7c3feb100, 2024-10-09)"
   xmlns:inkscape="http://www.inkscape.org/namespaces/inkscape"
   xmlns:sodipodi="http://sodipodi.sourceforge.net/DTD/sodipodi-0.dtd"
   xmlns="http://www.w3.org/2000/svg"
   xmlns:svg="http://www.w3.org/2000/svg">
  <defs
     id="defs1" />
  <sodipodi:namedview
     id="namedview1"
     pagecolor="#ffffff"
     bordercolor="#000000"
     borderopacity="0.25"
     inkscape:showpageshadow="2"
     inkscape:pageopacity="0.0"
     inkscape:pagecheckerboard="0"
     inkscape:deskcolor="#d1d1d1"
     inkscape:zoom="1.6289062"
     inkscape:cx="256"
     inkscape:cy="256"
     inkscape:window-width="1920"
     inkscape:window-height="1043"
     inkscape:window-x="0"
     inkscape:window-y="0"
     inkscape:window-maximized="1"
     inkscape:current-layer="svg1" />
  <!-- based on an icon from !Font Awesome Free 6.7.2 by @fontawesome - https://fontawesome.com License - https://fontawesome.com/license/free Copyright 2025 Fonticons, Inc.-->
  <path
     d="M 496,32 H 240 a 16,16 0 0 0 -16,16 v 32 a 16,16 0 0 0 16,16 H 496 A 16,16 0 0 0 512,80 V 48 A 16,16 0 0 0 496,32 Z"
     id="path5"
     style="fill:#db5ad2;fill-opacity:1" />
  <path
     d="M 368,288 H 240 a 16,16 0 0 0 -16,16 v 32 a 16,16 0 0 0 16,16 h 128 a 16,16 0 0 0 16,-16 v -32 a 16,16 0 0 0 -16,-16 z"
     id="path4"
     style="fill:#5adbcd;fill-opacity:1" />
  <path
     d="M 432,160 H 240 a 16,16 0 0 0 -16,16 v 32 a 16,16 0 0 0 16,16 h 192 a 16,16 0 0 0 16,-16 v -32 a 16,16 0 0 0 -16,-16 z"
     id="path3"
     style="fill:#dbc15a;fill-opacity:1" />
  <path
     d="m 16,160 h 48 v 304 a 16,16 0 0 0 16,16 h 32 a 16,16 0 0 0 16,-16 V 160 h 48 c 14.2,0 21.4,-17.2 11.3,-27.3 l -80,-96 a 16,16 0 0 0 -22.6,0 l -80,96 C -5.4,142.7 1.8,160 16,160 Z"
     id="path2"
     style="fill:#242424;fill-opacity:1" />
  <path
     d="m 304,416 h -64 a 16,16 0 0 0 -16,16 v 32 a 16,16 0 0 0 16,16 h 64 a 16,16 0 0 0 16,-16 v -32 a 16,16 0 0 0 -16,-16 z"
     id="path1"
     style="fill:#866484;fill-opacity:1" />
</svg>
